<svg xmlns="http://www.w3.org/2000/svg" viewBox="0 0 691.35 794.3"><g data-name="Слой 2"><path fill="#020202" stroke="#000" stroke-miterlimit="10" stroke-width="3" d="M687 753l-31.13-42 15.93 10.14 15.2 14.14-30.4-68.42 20.27 8-29-52.85 29 18.1-26.79-42 18.82 7.24L637.78 567l26.79 16.65-8-16.65 12.31-6.52-31.13-47.78 26.79 13-23.14-35.48 27.51 16.65-5.07-13.76-5.07-45.61 10.14 23.89V449l-28.23-47.1 28.23 18.82-31.85-46.33 31.85 13-31.85-48.51 26.79 17.37-27.51-38.37 27.51 23.89-5.8-18.77-23.17-32.58 10.12 4.33 13 15.93-3.62-18.1-27.51-31.85 27.51 18.1L624 231l30.41 21L624 208.6l22.44 18.82s-4.34-9.41-6.52-15.2-43.44-53.57-35.47-50.68S640 186.88 640 186.88 620.41 154.3 616.06 150s-26.06-34-23.17-34 15.2-15.2 22.44-21.72 10.14-35.47 11.5-42.71-2.09-21-.64-23.89 0-14.48 0-18.82-12.31-7.24-12.31-7.24-101.35 27.51-108.59 29-48.51-4.34-78.91-5.79-83.26 3.62-83.26 3.62l-36.92 6.52-55 13h-37.66l-31.13 4.34-42.71 7.15-36.2 10.14H83.23l-29 5.79c-3.62 5.79 4.34 37.65 5.07 39.82s19.55 21.72 19.55 21.72l17.37 36.92s-29 22.44-31.13 23.89 25.34-1.45 25.34-1.45l-15.93 13-14.48 7.24 9.41 2.17-10.09 18.86 20.27-12.31-27.51 42 20.27-8.69-26.79 39.81 23.17 2.9-29.68 30.4 15.2-1.45-16.65 38.37 15.93-2.17-16.65 26.06 13.76-5.79L23.14 433l36.2-15.93-37.65 54.33 26.06-13-27.51 46.3 21-18.1-8 19.55-23.85 50.67 31.85-13.76-31.13 55 34.75-19.55L26 591.57l-13 47.06 28.23-13-31.84 57.89 23.17-11.58L13 728.4l15.93-7.24L2.87 761l14.48-.72-10.86 29.66H687l-20.27-42.71z"/><rect width="589.95" height="329.16" x="47.83" y="357.48" fill="#fff" stroke="#000" stroke-miterlimit="10" stroke-width="3" rx="11.09" ry="11.09" transform="rotate(-1.61 342.537 521.966)"/><path fill="#fff" stroke="#000" stroke-miterlimit="10" stroke-width="3" d="M97.71 703.06s9.41 25.34 26.06 31.85c22.2 8.69 51.16 13.51 64.67 5.79s35.23-20.27 38.61-43.44c.7-4.78-35.23-52.49-41-41.27-8.52 16.5-11.95 22.56-11.95 14.84s3.26-16.77-9.41-19.16c-8.78-1.66-27.39 14.46-29.32 20.25s4.46-21.33-.36-20.37-36.56 19.28-37.28 27.61c-.55 6.09-.02 23.9-.02 23.9zM407.56 706s22.2 31.85 53.09 29 76.26-13.51 80.12-44.4-22.2-48.26-28-46.33-10.62 20.27-17.37 17.37-1.33-17.37-10-22.2-28.23 2.17-28.23 2.17-9.84 3.73-10.14 10c-.36 7.78-6.72 22-6.64 21.6 0 0-7.72 2.9-9.65 0s-6.52-19.67-6.52-19.67-41.76 13.81-16.66 52.46z"/><path fill="#e3b2f9" stroke="#000" stroke-miterlimit="10" stroke-width="3" d="M412.75 153.93c17.49-4.83-58.28-3-67.81-2.58s-64 21.19-64 21.19l19.49-.27 12.08 4.08 17.78 11.43 26.59 22 18-34.91 24.35-15.66s4.18-2.7 13.52-5.28z"/><ellipse cx="326.91" cy="180.28" fill="#f4deff" rx="7.67" ry="11.7" transform="rotate(-49.1 326.914 180.273)"/><ellipse cx="376.62" cy="171.87" fill="#f4deff" rx="11.7" ry="7.67" transform="rotate(-55.22 376.598 171.872)"/><path fill="#efece8" stroke="#000" stroke-miterlimit="10" stroke-width="3" d="M411.42 264.81C404.42 260.08 373 238 373 238l-15.63-16.12-9.23 19-19.73 19.67-22.2 12.45s-8.69 2.91 6.27 12.56 41 16.41 55.5 12.55 50.45-28.57 43.44-33.3z"/><path fill="#fff" stroke="#f4deff" stroke-linecap="round" stroke-miterlimit="10" stroke-width="3" d="M353.62 180.34l4.12 26.78"/><path fill="#fff" stroke="#000" stroke-miterlimit="10" stroke-width="3" d="M357.37 221.87s43.44 59.36 75.29 48.75 60.81-3.86 71.43-41.51-22.2-68.53-29.92-68.53S445.37 149 431.78 149s-61.86 15.44-68.62 43.44-5.79 18.81-5.79 29.43zm-3.75-14.56s-41-45.83-72.71-35.78-60.74 4.53-70.76 38.37 23.28 60.88 31 60.74 29 9.85 42.57 9.61 61.61-14.9 67.92-40.05 2.15-23.4 1.98-32.89z"/><path fill="#f4deff" stroke="#000" stroke-miterlimit="10" stroke-width="3" d="M128.6 123.9c-1.93-14.48-74.33-48.51-74.33-48.51l-1 16.89 3.62 18.58 11.29 14.75 11.51 13.09 9.13 19.3 7.44 15.81s34.27-35.43 32.34-49.91zm464.3-7.97c-20.27-9.89-26.06-57.68-18.34-72.15s51.64-35 51.64-35l.55 16.28v15.31l-1 18.46-6.85 29.81-11.51 13.63z"/><path fill="#0c95f2" stroke="#000" stroke-miterlimit="10" stroke-width="3" d="M302.38 69.32c-17.37-13-56-5.07-56 0l-5.79 5.07-8 9.41s-16.8 21.92-24.87 31.13c-4 4.58-13.83 15.52-7.71 33.06 6.42 18.41 21 35.89 46.33 30.6s61.83-30.08 63.76-51.59 9.66-44.65-7.72-57.68zm179.51 55.3c-1-3.62-7.87-36.44-13.11-39.34s-56.39-34.75-61.22-34.75-36.48-1.62-43.44 6.76c0 0-8.78 2.9-6.8 13s22.15 61.62 39.09 73.84c12.08 8.72 45.9 9.65 59.42 4.83s27.02-20.72 26.06-24.34z"/><path stroke="#000" stroke-miterlimit="10" stroke-width="3" d="M259.09 114.82c-12.3 5.62-25.58 9.43-22.47 23.59S235 167 250.92 171.1s51.18-27 51.18-27 9.61-17.52-.87-23.1-31.23-11.17-42.14-6.18zm167.8 34.38c11.78-3.41 28.27 0 27.73-14.44S430.38 95 415.36 94c-16.49-1.13-22 19-22 19s-11.26 15.6-2.85 22.91 25.92 16.32 36.38 13.29z"/><circle cx="244.13" cy="92.22" r="4.52" fill="#fff" transform="rotate(-6.37 244.35 92.282)"/><circle cx="268.02" cy="125.92" r="6.31" fill="#fff" transform="rotate(-15 268.022 125.928)"/><circle cx="378.78" cy="76.3" r="4.52" fill="#fff" transform="rotate(-6.37 379.082 76.345)"/><circle cx="409.09" cy="112.26" r="6.05" fill="#fff" transform="rotate(-6.37 409.44 112.285)"/><path fill="none" stroke="#fff" stroke-linecap="round" stroke-miterlimit="10" stroke-width="6" d="M261.32 210.52S179.52 184 163.59 184s-80.51 8.4-92 14m180.84 39.8s-85.7-7.21-101.21-3.58-76.49 26.51-86.42 34.56m202.72-17.86s-102.77 24.24-120.37 33.53-85 54.38-95.15 66m412-169.89s71.67-69.69 145.52-48M485.5 206.93s95.6-29.21 151.35 23.86m-193.34 21.03s121.85-15.72 204.63 51.25" opacity=".76"/><path fill="#f4deff" d="M356.66 222.81l-4.29 27.06 17.9-5.41-13.61-21.65z"/><path fill="#fff" d="M224 51.89c-4.34-1.75-52.3 3.28-58.17 4.39s-56.22 21-56.22 21l40.54-7s34.27-10.75 40.06-10.21c4 .37 45.86-6.49 70.52-10.38-14.88 1.68-34.05 3.31-36.73 2.2zm36.76-2.17c9.44-1 17.17-2.11 17.89-2.52.56-.33-6.99.8-17.89 2.52z" opacity=".2"/><ellipse cx="326.24" cy="181.09" fill="#050505" rx="3.62" ry="6.03" transform="rotate(-52.33 326.269 181.091)"/><ellipse cx="376.91" cy="169.51" fill="#050505" rx="6.03" ry="3.62" transform="rotate(-39.94 376.875 169.503)"/><path fill="#fff" d="M574.27 15.75c-2.08 0-65.61 22-69.23 20.38s-72-6.93-73.12-6.93c0 0-27.15.41-19.83 1.63S492.73 41 505 41.43s46.7-14.27 53.21-17.12 18.14-8.56 16.06-8.56z" opacity=".2"/><path fill="#fff" d="M324.85 161.44s13-6.53 17.27-6.51 18.77-3.87 25-1.6 10 3.7 10 3.7-11.85-2.77-17.69-2.1-15.1-.69-17.6 2.1-16.98 4.41-16.98 4.41z" opacity=".4"/><path fill="#b3b9bc" d="M118 721.89s31.37 23.65 49.71 19.79 29.44-12.07 29.44-12.07-15.93 8.09-31.85 5.5-40.06-14.18-47.3-20.94 0 7.72 0 7.72z" opacity=".5"/><path fill="#b3b9bc" d="M415.11 707.3s9.41 9.9 17 11.07 41.15 9.41 48.2 5.87 23.51-9.95 23.51-9.95-18.62 15.36-43.45 15.71-35.86-10.46-45.26-22.7z" opacity=".54"/><text font-family="Arial-BoldMT, Arial" font-size="100" font-weight="700" transform="rotate(-1.88 14706.407 -2791.962)">WEB - <tspan x="322.17" y="0" letter-spacing="-.01em">эт</tspan><tspan x="423.73" y="0">о </tspan><tspan x="118.6" y="120">к</tspan><tspan x="168.65" y="120" letter-spacing="-.01em">р</tspan><tspan x="228.42" y="120" letter-spacing=".01em">у</tspan><tspan x="285.25" y="120" letter-spacing="-.01em">т</tspan><tspan x="332.91" y="120">о</tspan></text><path fill="#fff" d="M28.48 705.67c1.76-.66 9.64-16.47 10.37-18.57s2.05-23.78 2.05-23.78l-5.36 14.31s-2.23 13.78-3.72 15.29c-1 1-6.74 15.69-10.17 24.27 2.41-4.94 5.75-11.11 6.83-11.52zm-6.83 11.52a37.27 37.27 0 0 0-2.65 6.12c.05.28 1.13-2.31 2.65-6.12zM28 611.76c1.69-.83 8-17.34 8.49-19.5s-.3-23.87-.3-23.87l-3.93 14.77s-.86 13.93-2.2 15.58c-.93 1.14-5.16 16.28-7.73 25.16 1.94-5.15 4.67-11.63 5.67-12.14zm-5.64 12.14a37.27 37.27 0 0 0-2 6.35c.04.27.86-2.43 2-6.35zm9.47-100.29c1.76-.66 9.64-16.47 10.37-18.57s2.05-23.78 2.05-23.78l-5.36 14.31s-2.23 13.78-3.72 15.29c-1 1-6.74 15.69-10.17 24.27 2.4-4.94 5.75-11.13 6.83-11.52zM25 535.13a37.27 37.27 0 0 0-2.63 6.12c.02.28 1.1-2.33 2.63-6.12zm625.11-70.69c-1 1.57 1.76 19 2.4 21.14s12.2 20.52 12.2 20.52l-4-14.75s-6.22-12.5-5.89-14.59c.23-1.46-3.67-16.68-5.88-25.65.94 5.4 1.81 12.37 1.17 13.33zM649 451.09a37.27 37.27 0 0 0-1.43-6.51c-.24-.2.43 2.54 1.43 6.51zm12.75-2.78c.25-1.19-4.55-12.19-5.29-13.5s-10.28-11.58-10.28-11.58l4.89 9.06s5.63 7.24 5.86 8.67c.16 1 5.1 10.38 8 15.92-1.54-3.4-3.33-7.88-3.18-8.57zm3.15 8.58a31 31 0 0 0 2 4 38.41 38.41 0 0 0-2-4zm-15.58 184.05c-.71 1.49 5.44 14.59 6.47 16.13s15.87 13.32 15.87 13.32l-6.76-10.71s-8.49-8.4-8.58-10.14c-.06-1.21-6.84-12.31-10.74-18.87 1.95 4.07 4.17 9.33 3.74 10.27zm-3.74-10.26a25.75 25.75 0 0 0-2.66-4.8c-.23-.12.93 1.89 2.66 4.8zm26.37 144.03c.92-1.65-3.29-18.8-4.1-20.87S654 734.37 654 734.37l5.16 14.38s7.21 12 7 14.07c-.11 1.47 5 16.33 7.94 25.09-1.28-5.32-2.72-12.19-2.15-13.2zm2.23 13.21a37.27 37.27 0 0 0 2 6.37c.16.19-.71-2.5-2-6.37zM667 700.76c-.57 1.18 3.59 12.42 4.31 13.76s11.37 12.05 11.37 12.05l-4.69-9.3s-6-7.5-6.06-8.94c0-1-4.7-10.62-7.4-16.3 1.35 3.49 2.84 7.97 2.47 8.73zm-2.45-8.76a23.44 23.44 0 0 0-1.83-4.14 28.78 28.78 0 0 0 1.83 4.14zM346.79 303.22c1.21 1.72 20.17 4.43 22.6 4.43s26-16.89 26-16.89l-16.95 9.5s-15.17 2.85-17.2 1.75c-1.41-.76-18.5-1.47-28.55-2 5.87.79 13.31 2.15 14.1 3.21zM332.65 300c-3.74-.5-6.86-.77-7.22-.58s2.78.37 7.22.58zM23.48 771.67c1.76-.66 9.64-16.47 10.37-18.57s2.05-23.78 2.05-23.78l-5.36 14.31s-2.23 13.78-3.72 15.29c-1 1-6.74 15.69-10.17 24.27 2.41-4.94 5.75-11.11 6.83-11.52zm-6.83 11.52a37.27 37.27 0 0 0-2.65 6.12c.05.28 1.13-2.31 2.65-6.12zm596.7-594.76c-.57 1.45 6.63 12.49 7.79 13.74s16.8 9.88 16.8 9.88l-7.6-8.78s-9.1-6.44-9.34-8c-.16-1.09-7.81-10.22-12.24-15.63 2.29 3.36 4.94 7.91 4.59 8.79zm-4.58-8.8a21.73 21.73 0 0 0-3-4c-.28-.06 1.04 1.61 3 4zm18.46-8.72c.18-1.36-7.46-11.56-8.59-12.71s-14.92-8.94-14.92-8.94l7.54 8.07s8.28 5.86 8.75 7.32c.33 1 8 9.41 12.41 14.4-2.42-3.15-5.3-7.31-5.19-8.14zm5.19 8.09a26 26 0 0 0 3.11 3.67 32 32 0 0 0-3.11-3.67zm-268.88-38.52c-1.51-1.89-22.21-1.17-24.83-.65S311.94 154 311.94 154l18-3s16-6.84 18.29-5.91c1.6.64 20.07-2.17 30.94-3.68-6.49.31-14.7.23-15.63-.93zm15.58.94c4.08-.19 7.46-.53 7.83-.84s-3.03.17-7.83.84z" opacity=".2"/><path fill="#e3b2f9" d="M91.1 142.77c.5-1.82-7.7-17.46-9-19.29s-18.07-15.59-18.07-15.59l8.46 12.73s9.86 9.88 10.21 12c.3 1.38 8.8 14.63 13.74 22.43-2.59-4.84-5.64-11.17-5.34-12.28zm5.34 12.28a37.27 37.27 0 0 0 3.42 5.72c.25.14-1.24-2.26-3.42-5.72zm482.95-87.82c-1.1 1.53 1.07 19.05 1.63 21.21s11.44 20.95 11.44 20.95L589 94.5s-5.76-12.71-5.35-14.8c.29-1.45-3.06-16.8-4.94-25.85.73 5.44 1.35 12.44.68 13.38zm-.68-13.38a37.27 37.27 0 0 0-1.19-6.55c-.18-.22.36 2.55 1.19 6.55z"/><path fill="#b3b9bc" d="M114.58 670.65c.89.71 8.78-3 9.71-3.73s8.07-11.54 8.07-11.54l-6.46 4.46s-5.08 6.06-6.12 6c-.72-.06-7.42 4.37-11.37 6.91 2.44-1.23 5.59-2.53 6.17-2.1zm-6.18 2.07a12.33 12.33 0 0 0-2.89 1.7 14.81 14.81 0 0 0 2.89-1.7zm51.6-13.93c-.79-.81-9.1 1.89-10.11 2.45s-9.49 10.4-9.49 10.4l7-3.59s5.82-5.36 6.84-5.13c.71.15 7.92-3.38 12.17-5.39-2.61.88-5.94 1.76-6.41 1.26zm6.38-1.26a12.33 12.33 0 0 0 3.09-1.32 14.81 14.81 0 0 0-3.09 1.32zm43.87 25.06c.51-1.3-5.25-12.3-6.18-13.57s-13.83-10.83-13.83-10.83l6.15 8.93s7.46 6.88 7.62 8.37c.11 1 6.29 10.29 9.86 15.77-1.87-3.42-3.94-7.88-3.62-8.67zm3.62 8.65a22.75 22.75 0 0 0 2.45 4 27.85 27.85 0 0 0-2.45-4zm200.52-25.7c-.86-.56-5.77 4.19-6.27 5s-2.87 12.35-2.87 12.35l3.62-5.24s2.14-6.6 3-6.66c.56 0 4.37-5.29 6.64-8.32-1.51 1.5-3.59 3.21-4.12 2.87zm4.08-2.88a8.2 8.2 0 0 0 1.71-2.06c0-.18-.71.72-1.71 2.06zm114.64 8.8c.51-1.3-5.25-12.3-6.18-13.57S513.1 647 513.1 647l6.15 8.93s7.46 6.88 7.62 8.37c.11 1 6.29 10.29 9.86 15.77-1.83-3.37-3.94-7.82-3.62-8.61zm3.62 8.65a22.75 22.75 0 0 0 2.45 4 27.85 27.85 0 0 0-2.45-4zM475 643.49c-1-.61-11.63 2-12.92 2.46s-12.1 8.73-12.1 8.73l8.91-3.2s7.42-4.54 8.73-4.42c.91.09 10.11-3.09 15.55-4.89-3.3.83-7.56 1.69-8.17 1.32zm8.16-1.32a22.23 22.23 0 0 0 3.95-1.2 27.33 27.33 0 0 0-3.95 1.2z" opacity=".5"/><path fill="#edeeef" d="M156.39 370.94c-30.32-2-102.52 4.5-102.52 4.5l1.44 74c-.72-8.5 7.94-46.5 9.85-51.5s.26-17 12.82-20 108.73-5 78.41-7zm403.17 300.38c21 2.21 71-3.81 71-3.81l-.28-99c.42 8.5-6 71.44-7.32 76.43s-.35 17-9.07 19.91-75.31 4.26-54.33 6.47zM54.87 533.94l3.25 89.27 1.41 59.9s4.12-71.76 5.34-84 4.6-15.29-1.63-19.21-1.59-22-1.59-22z"/></g></svg>