<svg xmlns="http://www.w3.org/2000/svg" viewBox="0 0 58 58"><path fill="#52c306" d="M52 20.413v8.895L29 41.99 6 29.308v-8.895l-6 5.586V58h58V25.999z"/><path fill="#88c057" d="M.091 26.05l57.511 31.711-.062.239H.129A.13.13 0 0 1 0 57.871V26.104c0-.047.05-.076.091-.054z"/><path fill="#43b05c" d="M57.909 26.05L29 41.99l28.602 15.771-.062.239h.331a.13.13 0 0 0 .129-.129V26.104a.062.062 0 0 0-.091-.054z"/><path fill="#88c057" d="M.091 26.05l57.511 31.711-.062.239H.129A.13.13 0 0 1 0 57.871V26.104c0-.047.05-.076.091-.054z"/><path fill="#f2ecbf" d="M29 41.99l23-12.682V0H6v29.308z"/><path fill="#bab395" d="M33 10h-6a1 1 0 1 1 0-2h6a1 1 0 1 1 0 2zm9 15h-7a1 1 0 1 1 0-2h7a1 1 0 1 1 0 2zm-20-8h-5a1 1 0 1 1 0-2h5a1 1 0 1 1 0 2zm16 0h-8a1 1 0 1 1 0-2h8a1 1 0 1 1 0 2zm-12 0c-.26 0-.521-.11-.71-.29-.181-.19-.29-.45-.29-.71s.109-.521.29-.71c.37-.37 1.05-.37 1.42 0 .18.189.29.45.29.71s-.11.52-.29.71c-.19.18-.45.29-.71.29zm5 8H21a1 1 0 1 1 0-2h10a1 1 0 1 1 0 2zm-14 0c-.26 0-.521-.11-.71-.29-.181-.19-.29-.45-.29-.71 0-.271.109-.521.29-.71.37-.37 1.04-.37 1.42 0 .18.189.29.45.29.71s-.11.52-.29.71c-.19.18-.45.29-.71.29zm25-8c-.26 0-.521-.11-.71-.29-.181-.19-.29-.45-.29-.71s.109-.521.29-.71c.38-.37 1.05-.37 1.42 0 .18.189.29.45.29.71s-.11.52-.29.71c-.19.18-.45.29-.71.29zM22 33h-5a1 1 0 1 1 0-2h5a1 1 0 1 1 0 2zm16 0h-8a1 1 0 1 1 0-2h8a1 1 0 1 1 0 2zm-12 0c-.271 0-.521-.11-.71-.29-.181-.19-.29-.45-.29-.71 0-.271.109-.53.29-.71.359-.36 1.05-.37 1.42 0 .18.18.29.439.29.71 0 .26-.11.52-.29.71-.19.18-.45.29-.71.29zm16 0c-.271 0-.521-.11-.71-.29-.181-.19-.29-.45-.29-.71 0-.271.109-.53.29-.71.359-.36 1.05-.37 1.42 0 .18.18.29.439.29.71 0 .26-.11.52-.29.71-.19.18-.45.29-.71.29z"/></svg>