<svg xmlns="http://www.w3.org/2000/svg" width="512" height="512" viewBox="0 0 511 511"><g fill="#696969"><path d="M487.5 24h-464C10.542 24 0 34.542 0 47.5v304C0 364.458 10.542 375 23.5 375h158.057l-11.714 41H135.5a7.5 7.5 0 0 0 0 15h39.976l.028.002.024-.002H271.5a7.5 7.5 0 0 0 0-15h-86.057l11.714-41H271.5a7.5 7.5 0 0 0 0-15h-248c-4.687 0-8.5-3.813-8.5-8.5v-304c0-4.687 3.813-8.5 8.5-8.5h464c4.687 0 8.5 3.813 8.5 8.5v304a7.5 7.5 0 0 0 15 0v-304c0-12.958-10.542-23.5-23.5-23.5z"/><path d="M471.5 56h-432a7.5 7.5 0 0 0-7.5 7.5v272a7.5 7.5 0 0 0 7.5 7.5h232a7.5 7.5 0 0 0 0-15H47V135h417v32.5a7.5 7.5 0 0 0 15 0v-104a7.5 7.5 0 0 0-7.5-7.5zM47 120V71h417v49H47z"/><path d="M391.5 88h-240a7.5 7.5 0 0 0 0 15h240a7.5 7.5 0 0 0 0-15zm48 0h-16a7.5 7.5 0 0 0 0 15h16a7.5 7.5 0 0 0 0-15zm-368 0c-1.97 0-3.91.8-5.3 2.2a7.528 7.528 0 0 0-2.2 5.3c0 1.97.8 3.91 2.2 5.3 1.39 1.4 3.33 2.2 5.3 2.2 1.97 0 3.91-.8 5.3-2.2 1.4-1.39 2.2-3.33 2.2-5.3 0-1.97-.8-3.91-2.2-5.3a7.528 7.528 0 0 0-5.3-2.2zm24 0a7.51 7.51 0 0 0-7.5 7.5c0 1.97.8 3.91 2.2 5.3 1.39 1.4 3.33 2.2 5.3 2.2 1.97 0 3.91-.8 5.3-2.2 1.4-1.39 2.2-3.33 2.2-5.3a7.51 7.51 0 0 0-7.5-7.5zm24 0c-1.97 0-3.91.8-5.3 2.2a7.528 7.528 0 0 0-2.2 5.3c0 1.97.8 3.91 2.2 5.3 1.39 1.4 3.33 2.2 5.3 2.2a7.51 7.51 0 0 0 7.5-7.5 7.51 7.51 0 0 0-7.5-7.5zm336 104h-136c-12.958 0-23.5 10.542-23.5 23.5v248c0 12.958 10.542 23.5 23.5 23.5h136c12.958 0 23.5-10.542 23.5-23.5v-248c0-12.958-10.542-23.5-23.5-23.5zM311 239h153v33H311v-33zm0 48h153v153H311V287zm8.5-80h136c4.687 0 8.5 3.813 8.5 8.5v8.5H311v-8.5c0-4.687 3.813-8.5 8.5-8.5zm136 265h-136c-4.687 0-8.5-3.813-8.5-8.5V455h153v8.5c0 4.687-3.813 8.5-8.5 8.5z"/><path d="M415.5 248h-88a7.5 7.5 0 0 0 0 15h88a7.5 7.5 0 0 0 0-15zm32 0h-8a7.5 7.5 0 0 0 0 15h8a7.5 7.5 0 0 0 0-15zm-360-88c-8.547 0-15.5 6.953-15.5 15.5v104c0 8.547 6.953 15.5 15.5 15.5h120c8.547 0 15.5-6.953 15.5-15.5v-104c0-8.547-6.953-15.5-15.5-15.5h-120zm71.336 67.5L208 184.12v86.761L158.836 227.5zM147.5 217.498L99.336 175h96.328L147.5 217.498zM87 270.88v-86.76l49.164 43.38L87 270.88zm60.5-33.378L195.664 280H99.336l48.164-42.498zM255.5 175h184a7.5 7.5 0 0 0 0-15h-184a7.5 7.5 0 0 0 0 15zm16 25h-16a7.5 7.5 0 0 0 0 15h16a7.5 7.5 0 0 0 0-15zm0 40h-16a7.5 7.5 0 0 0 0 15h16a7.5 7.5 0 0 0 0-15zm0 40h-16a7.5 7.5 0 0 0 0 15h16a7.5 7.5 0 0 0 0-15zm160 24h-88c-8.547 0-15.5 6.953-15.5 15.5v56c0 8.547 6.953 15.5 15.5 15.5h88c8.547 0 15.5-6.953 15.5-15.5v-56c0-8.547-6.953-15.5-15.5-15.5zm-30.03 43.5L432 328.072v38.856L401.47 347.5zm-13.97-8.89L356.684 319h61.632L387.5 338.61zM343 366.928v-38.856l30.53 19.428L343 366.928zm44.5-10.538L418.316 376h-61.632l30.816-19.61zm52 51.61h-104a7.5 7.5 0 0 0 0 15h104a7.5 7.5 0 0 0 0-15z"/></g></svg>