<svg xmlns="http://www.w3.org/2000/svg" viewBox="0 0 64 64" width="512" height="512"><path d="M63.759 31.645l-7.035-8.207 7.035-8.207a.997.997 0 0 0-.274-1.524L40.71 1.054a1 1 0 0 0-1.19.164l-6.917 6.858-6.855-6.855a1 1 0 0 0-1.208-.158L.5 14.981a1.001 1.001 0 0 0-.15 1.624l8.146 6.982-7.03 9.374a.997.997 0 0 0 .315 1.474l7.003 3.89a.977.977 0 0 0-.06.297v9.25a3.45 3.45 0 0 0 1.717 2.976l20.35 11.748a3.557 3.557 0 0 0 1.775.474l.018-.001c.006 0 .01.003.016.003.01 0 .02-.006.03-.006a3.556 3.556 0 0 0 1.713-.47L54.63 50.883a3.573 3.573 0 0 0 1.778-3.082V37.496l7.114-4.347a1 1 0 0 0 .237-1.504zm-32.16 2.729L11.843 23.397 31.6 11.323v23.05zm2-23.091l19.824 12.114L33.6 34.411V11.283zm6.797-8.115L61.443 14.86l-6.24 7.28-21-12.833 6.193-6.14zm-15.519.01l6.15 6.15-21.07 12.879-7.234-6.2 22.154-12.83zM10.134 24.735l20.968 11.65-6.341 8.529L3.754 33.243l6.38-8.508zm1.308 24.382a1.444 1.444 0 0 1-.717-1.244v-8.47l13.83 7.684a1 1 0 0 0 1.288-.277l5.757-7.742v21.686L11.442 49.117zM54.408 47.8c0 .555-.299 1.073-.779 1.35l-20.03 11.565v-21.67l5.826 7.767a.999.999 0 0 0 1.321.254l13.662-8.349V47.8zM40.48 44.886l-6.36-8.477 21.06-11.7 6.297 7.345L40.48 44.886z" fill="#696969"/></svg>