<svg xmlns="http://www.w3.org/2000/svg" viewBox="0 0 691.35 794.3"><title>Ресурс 6</title><g id="Слой_2" data-name="Слой 2"><g id="Слой_2-2" data-name="Слой 2"><path d="M687,753l-31.13-42,15.93,10.14L687,735.28,656.6,666.86l20.27,8-29-52.85,29,18.1-26.79-42,18.82,7.24L637.78,567l26.79,16.65-8-16.65,12.31-6.52-31.13-47.78,26.79,13L641.4,490.22l27.51,16.65-5.07-13.76-5.07-45.61,10.14,23.89V449L640.68,401.9l28.23,18.82-31.85-46.33,31.85,13-31.85-48.51,26.79,17.37-27.51-38.37,27.51,23.89L658.05,323l-23.17-32.58L645,294.75l13,15.93-3.62-18.1-27.51-31.85,27.51,18.1L624,231l30.41,21L624,208.6l22.44,18.82s-4.34-9.41-6.52-15.2-43.44-53.57-35.47-50.68S640,186.88,640,186.88,620.41,154.3,616.06,150s-26.06-34-23.17-34,15.2-15.2,22.44-21.72,10.14-35.47,11.5-42.71-2.09-21-.64-23.89,0-14.48,0-18.82-12.31-7.24-12.31-7.24-101.35,27.51-108.59,29-48.51-4.34-78.91-5.79-83.26,3.62-83.26,3.62l-36.92,6.52-55,13H213.54l-31.13,4.34L139.7,59.46,103.5,69.6H83.23l-29,5.79c-3.62,5.79,4.34,37.65,5.07,39.82s19.55,21.72,19.55,21.72l17.37,36.92s-29,22.44-31.13,23.89,25.34-1.45,25.34-1.45l-15.93,13-14.48,7.24,9.41,2.17L59.34,237.56l20.27-12.31-27.51,42,20.27-8.69L45.58,298.37l23.17,2.9L39.07,331.67l15.2-1.45L37.62,368.59l15.93-2.17L36.9,392.48l13.76-5.79L23.14,433l36.2-15.93L21.69,471.4l26.06-13L20.24,504.7l21-18.1-8,19.55L9.39,556.82l31.85-13.76-31.13,55,34.75-19.55L26,591.57,13,638.63l28.23-13L9.39,683.52l23.17-11.58L13,728.4l15.93-7.24L2.87,761l14.48-.72L6.49,789.94H687l-20.27-42.71Z" fill="#020202" stroke="#000" stroke-miterlimit="10" stroke-width="3"/><rect x="47.83" y="357.48" width="589.95" height="329.16" rx="11.09" ry="11.09" transform="translate(-14.53 9.83) rotate(-1.61)" fill="#fff" stroke="#000" stroke-miterlimit="10" stroke-width="3"/><path d="M57.89,70.32" fill="none" stroke="#000" stroke-miterlimit="10" stroke-width="3"/><path d="M97.71,703.06s9.41,25.34,26.06,31.85c22.2,8.69,51.16,13.51,64.67,5.79s35.23-20.27,38.61-43.44c.7-4.78-35.23-52.49-41-41.27-8.52,16.5-11.95,22.56-11.95,14.84s3.26-16.77-9.41-19.16c-8.78-1.66-27.39,14.46-29.32,20.25s4.46-21.33-.36-20.37-36.56,19.28-37.28,27.61C97.18,685.25,97.71,703.06,97.71,703.06Z" fill="#fff" stroke="#000" stroke-miterlimit="10" stroke-width="3"/><path d="M407.56,706s22.2,31.85,53.09,29,76.26-13.51,80.12-44.4-22.2-48.26-28-46.33-10.62,20.27-17.37,17.37-1.33-17.37-10-22.2-28.23,2.17-28.23,2.17-9.84,3.73-10.14,10c-.36,7.78-6.72,22-6.64,21.6,0,0-7.72,2.9-9.65,0s-6.52-19.67-6.52-19.67S382.46,667.35,407.56,706Z" fill="#fff" stroke="#000" stroke-miterlimit="10" stroke-width="3"/><path d="M227.06,697.27" fill="none" stroke="#000" stroke-miterlimit="10" stroke-width="3"/><path d="M412.75,153.93c17.49-4.83-58.28-3-67.81-2.58s-64,21.19-64,21.19l19.49-.27,12.08,4.08,17.78,11.43,26.59,22,18-34.91,24.35-15.66S403.41,156.51,412.75,153.93Z" fill="#e3b2f9" stroke="#000" stroke-miterlimit="10" stroke-width="3"/><ellipse cx="326.91" cy="180.28" rx="7.67" ry="11.7" transform="translate(-23.39 309.34) rotate(-49.1)" fill="#f4deff"/><ellipse cx="376.62" cy="171.87" rx="11.7" ry="7.67" transform="translate(20.61 383.15) rotate(-55.22)" fill="#f4deff"/><path d="M411.42,264.81C404.42,260.08,373,238,373,238l-15.63-16.12-9.23,19-19.73,19.67L306.21,273s-8.69,2.91,6.27,12.56,41,16.41,55.5,12.55S418.43,269.54,411.42,264.81Z" fill="#efece8" stroke="#000" stroke-miterlimit="10" stroke-width="3"/><line x1="353.62" y1="180.34" x2="357.74" y2="207.12" fill="#fff" stroke="#f4deff" stroke-linecap="round" stroke-miterlimit="10" stroke-width="3"/><path d="M357.37,221.87s43.44,59.36,75.29,48.75,60.81-3.86,71.43-41.51-22.2-68.53-29.92-68.53S445.37,149,431.78,149s-61.86,15.44-68.62,43.44S357.37,211.25,357.37,221.87Z" fill="#fff" stroke="#000" stroke-miterlimit="10" stroke-width="3"/><path d="M353.62,207.31s-41-45.83-72.71-35.78-60.74,4.53-70.76,38.37,23.28,60.88,31,60.74,29,9.85,42.57,9.61,61.61-14.9,67.92-40.05S353.79,216.8,353.62,207.31Z" fill="#fff" stroke="#000" stroke-miterlimit="10" stroke-width="3"/><path d="M128.6,123.9c-1.93-14.48-74.33-48.51-74.33-48.51l-1,16.89,3.62,18.58,11.29,14.75,11.51,13.09L88.82,158l7.44,15.81S130.53,138.38,128.6,123.9Z" fill="#f4deff" stroke="#000" stroke-miterlimit="10" stroke-width="3"/><path d="M592.9,115.93c-20.27-9.89-26.06-57.68-18.34-72.15s51.64-35,51.64-35l.55,16.28V40.37l-1,18.46L618.9,88.64l-11.51,13.63Z" fill="#f4deff" stroke="#000" stroke-miterlimit="10" stroke-width="3"/><path d="M302.38,69.32c-17.37-13-56-5.07-56,0l-5.79,5.07-8,9.41s-16.8,21.92-24.87,31.13c-4,4.58-13.83,15.52-7.71,33.06,6.42,18.41,21,35.89,46.33,30.6S308.17,148.51,310.1,127,319.76,82.35,302.38,69.32Z" fill="#0c95f2" stroke="#000" stroke-miterlimit="10" stroke-width="3"/><path d="M481.89,124.62c-1-3.62-7.87-36.44-13.11-39.34s-56.39-34.75-61.22-34.75-36.48-1.62-43.44,6.76c0,0-8.78,2.9-6.8,13s22.15,61.62,39.09,73.84c12.08,8.72,45.9,9.65,59.42,4.83S482.85,128.24,481.89,124.62Z" fill="#0c95f2" stroke="#000" stroke-miterlimit="10" stroke-width="3"/><path d="M259.09,114.82c-12.3,5.62-25.58,9.43-22.47,23.59S235,167,250.92,171.1s51.18-27,51.18-27,9.61-17.52-.87-23.1S270,109.83,259.09,114.82Z" stroke="#000" stroke-miterlimit="10" stroke-width="3"/><path d="M426.89,149.2c11.78-3.41,28.27,0,27.73-14.44S430.38,95,415.36,94c-16.49-1.13-22,19-22,19s-11.26,15.6-2.85,22.91S416.43,152.23,426.89,149.2Z" stroke="#000" stroke-miterlimit="10" stroke-width="3"/><circle cx="244.13" cy="92.22" r="4.52" transform="translate(-8.73 27.68) rotate(-6.37)" fill="#fff"/><circle cx="268.02" cy="125.92" r="6.31" transform="translate(-23.46 73.66) rotate(-15)" fill="#fff"/><circle cx="378.78" cy="76.3" r="4.52" transform="translate(-6.13 42.53) rotate(-6.37)" fill="#fff"/><circle cx="409.09" cy="112.26" r="6.05" transform="translate(-9.93 46.12) rotate(-6.37)" fill="#fff"/><path d="M261.32,210.52S179.52,184,163.59,184s-80.51,8.4-92,14" fill="none" stroke="#fff" stroke-linecap="round" stroke-miterlimit="10" stroke-width="6" opacity="0.76"/><path d="M252.43,237.8s-85.7-7.21-101.21-3.58S74.73,260.73,64.8,268.78" fill="none" stroke="#fff" stroke-linecap="round" stroke-miterlimit="10" stroke-width="6" opacity="0.76"/><path d="M267.52,250.92s-102.77,24.24-120.37,33.53-85,54.38-95.15,66" fill="none" stroke="#fff" stroke-linecap="round" stroke-miterlimit="10" stroke-width="6" opacity="0.76"/><path d="M464,180.56s71.67-69.69,145.52-48" fill="none" stroke="#fff" stroke-linecap="round" stroke-miterlimit="10" stroke-width="6" opacity="0.76"/><path d="M485.5,206.93s95.6-29.21,151.35,23.86" fill="none" stroke="#fff" stroke-linecap="round" stroke-miterlimit="10" stroke-width="6" opacity="0.76"/><path d="M443.51,251.82s121.85-15.72,204.63,51.25" fill="none" stroke="#fff" stroke-linecap="round" stroke-miterlimit="10" stroke-width="6" opacity="0.76"/><polygon points="356.66 222.81 352.37 249.87 370.27 244.46 356.66 222.81" fill="#f4deff"/><g opacity="0.2"><path d="M224,51.89c-4.34-1.75-52.3,3.28-58.17,4.39s-56.22,21-56.22,21l40.54-7s34.27-10.75,40.06-10.21c4,.37,45.86-6.49,70.52-10.38C245.85,51.37,226.68,53,224,51.89Z" fill="#fff"/><path d="M260.76,49.72c9.44-1,17.17-2.11,17.89-2.52C279.21,46.87,271.66,48,260.76,49.72Z" fill="#fff"/></g><ellipse cx="326.24" cy="181.09" rx="3.62" ry="6.03" transform="translate(-16.46 328.68) rotate(-52.33)" fill="#050505"/><ellipse cx="376.91" cy="169.51" rx="6.03" ry="3.62" transform="translate(-20.9 281.49) rotate(-39.94)" fill="#050505"/><path d="M574.27,15.75c-2.08,0-65.61,22-69.23,20.38s-72-6.93-73.12-6.93c0,0-27.15.41-19.83,1.63S492.73,41,505,41.43s46.7-14.27,53.21-17.12S576.35,15.75,574.27,15.75Z" fill="#fff" opacity="0.2"/><path d="M324.85,161.44s13-6.53,17.27-6.51,18.77-3.87,25-1.6,10,3.7,10,3.7-11.85-2.77-17.69-2.1-15.1-.69-17.6,2.1S324.85,161.44,324.85,161.44Z" fill="#fff" opacity="0.4"/><path d="M156.72,660.72" fill="#fff" stroke="#000" stroke-miterlimit="10" stroke-width="3"/><path d="M118,721.89s31.37,23.65,49.71,19.79,29.44-12.07,29.44-12.07-15.93,8.09-31.85,5.5-40.06-14.18-47.3-20.94S118,721.89,118,721.89Z" fill="#b3b9bc" opacity="0.5"/><path d="M415.11,707.3s9.41,9.9,17,11.07,41.15,9.41,48.2,5.87,23.51-9.95,23.51-9.95S485.2,729.65,460.37,730,424.51,719.54,415.11,707.3Z" fill="#b3b9bc" opacity="0.54"/><text transform="translate(99.51 480.96) rotate(-1.88)" font-size="100" font-family="Arial-BoldMT, Arial" font-weight="700">WEB - <tspan x="322.17" y="0" letter-spacing="-0.01em">эт</tspan><tspan x="423.73" y="0">о </tspan><tspan x="118.6" y="120">к</tspan><tspan x="168.65" y="120" letter-spacing="-0.01em">р</tspan><tspan x="228.42" y="120" letter-spacing="0.01em">у</tspan><tspan x="285.25" y="120" letter-spacing="-0.01em">т</tspan><tspan x="332.91" y="120">о</tspan></text><g opacity="0.2"><path d="M28.48,705.67c1.76-.66,9.64-16.47,10.37-18.57s2.05-23.78,2.05-23.78l-5.36,14.31s-2.23,13.78-3.72,15.29c-1,1-6.74,15.69-10.17,24.27C24.06,712.25,27.4,706.08,28.48,705.67Z" fill="#fff"/><path d="M21.65,717.19A37.27,37.27,0,0,0,19,723.31C19.05,723.59,20.13,721,21.65,717.19Z" fill="#fff"/></g><g opacity="0.2"><path d="M28,611.76c1.69-.83,8-17.34,8.49-19.5s-.3-23.87-.3-23.87l-3.93,14.77s-.86,13.93-2.2,15.58c-.93,1.14-5.16,16.28-7.73,25.16C24.27,618.75,27,612.27,28,611.76Z" fill="#fff"/><path d="M22.36,623.9a37.27,37.27,0,0,0-2,6.35C20.4,630.52,21.22,627.82,22.36,623.9Z" fill="#fff"/></g><g opacity="0.2"><path d="M31.83,523.61c1.76-.66,9.64-16.47,10.37-18.57s2.05-23.78,2.05-23.78l-5.36,14.31s-2.23,13.78-3.72,15.29c-1,1-6.74,15.69-10.17,24.27C27.4,530.19,30.75,524,31.83,523.61Z" fill="#fff"/><path d="M25,535.13a37.27,37.27,0,0,0-2.63,6.12C22.39,541.53,23.47,538.92,25,535.13Z" fill="#fff"/></g><g opacity="0.2"><path d="M650.11,464.44c-1,1.57,1.76,19,2.4,21.14s12.2,20.52,12.2,20.52l-4-14.75s-6.22-12.5-5.89-14.59c.23-1.46-3.67-16.68-5.88-25.65C649.88,456.51,650.75,463.48,650.11,464.44Z" fill="#fff"/><path d="M649,451.09a37.27,37.27,0,0,0-1.43-6.51C647.33,444.38,648,447.12,649,451.09Z" fill="#fff"/></g><g opacity="0.2"><path d="M661.75,448.31c.25-1.19-4.55-12.19-5.29-13.5s-10.28-11.58-10.28-11.58l4.89,9.06s5.63,7.24,5.86,8.67c.16,1,5.1,10.38,8,15.92C663.39,453.48,661.6,449,661.75,448.31Z" fill="#fff"/><path d="M664.9,456.89a31,31,0,0,0,2,4A38.41,38.41,0,0,0,664.9,456.89Z" fill="#fff"/></g><g opacity="0.2"><path d="M649.32,640.94c-.71,1.49,5.44,14.59,6.47,16.13s15.87,13.32,15.87,13.32l-6.76-10.71s-8.49-8.4-8.58-10.14c-.06-1.21-6.84-12.31-10.74-18.87C647.53,634.74,649.75,640,649.32,640.94Z" fill="#fff"/><path d="M645.58,630.68a25.75,25.75,0,0,0-2.66-4.8C642.69,625.76,643.85,627.77,645.58,630.68Z" fill="#fff"/></g><g opacity="0.2"><path d="M671.95,774.71c.92-1.65-3.29-18.8-4.1-20.87S654,734.37,654,734.37l5.16,14.38s7.21,12,7,14.07c-.11,1.47,5,16.33,7.94,25.09C672.82,782.59,671.38,775.72,671.95,774.71Z" fill="#fff"/><path d="M674.18,787.92a37.27,37.27,0,0,0,2,6.37C676.34,794.48,675.47,791.79,674.18,787.92Z" fill="#fff"/></g><g opacity="0.2"><path d="M667,700.76c-.57,1.18,3.59,12.42,4.31,13.76s11.37,12.05,11.37,12.05l-4.69-9.3s-6-7.5-6.06-8.94c0-1-4.7-10.62-7.4-16.3C665.88,695.52,667.37,700,667,700.76Z" fill="#fff"/><path d="M664.55,692a23.44,23.44,0,0,0-1.83-4.14A28.78,28.78,0,0,0,664.55,692Z" fill="#fff"/></g><g opacity="0.2"><path d="M346.79,303.22c1.21,1.72,20.17,4.43,22.6,4.43s26-16.89,26-16.89l-16.95,9.5s-15.17,2.85-17.2,1.75c-1.41-.76-18.5-1.47-28.55-2C338.56,300.8,346,302.16,346.79,303.22Z" fill="#fff"/><path d="M332.65,300c-3.74-.5-6.86-.77-7.22-.58S328.21,299.79,332.65,300Z" fill="#fff"/></g><g opacity="0.2"><path d="M23.48,771.67c1.76-.66,9.64-16.47,10.37-18.57s2.05-23.78,2.05-23.78l-5.36,14.31s-2.23,13.78-3.72,15.29c-1,1-6.74,15.69-10.17,24.27C19.06,778.25,22.4,772.08,23.48,771.67Z" fill="#fff"/><path d="M16.65,783.19A37.27,37.27,0,0,0,14,789.31C14.05,789.59,15.13,787,16.65,783.19Z" fill="#fff"/></g><g opacity="0.2"><path d="M613.35,188.43c-.57,1.45,6.63,12.49,7.79,13.74s16.8,9.88,16.8,9.88l-7.6-8.78s-9.1-6.44-9.34-8c-.16-1.09-7.81-10.22-12.24-15.63C611.05,183,613.7,187.55,613.35,188.43Z" fill="#fff"/><path d="M608.77,179.63a21.73,21.73,0,0,0-3-4C605.49,175.57,606.81,177.24,608.77,179.63Z" fill="#fff"/></g><g opacity="0.2"><path d="M627.23,170.91c.18-1.36-7.46-11.56-8.59-12.71s-14.92-8.94-14.92-8.94l7.54,8.07s8.28,5.86,8.75,7.32c.33,1,8,9.41,12.41,14.4C630,175.9,627.12,171.74,627.23,170.91Z" fill="#fff"/><path d="M632.42,179a26,26,0,0,0,3.11,3.67A32,32,0,0,0,632.42,179Z" fill="#fff"/></g><g opacity="0.2"><path d="M363.54,140.48c-1.51-1.89-22.21-1.17-24.83-.65S311.94,154,311.94,154l18-3s16-6.84,18.29-5.91c1.6.64,20.07-2.17,30.94-3.68C372.68,141.72,364.47,141.64,363.54,140.48Z" fill="#fff"/><path d="M379.12,141.42c4.08-.19,7.46-.53,7.83-.84S383.92,140.75,379.12,141.42Z" fill="#fff"/></g><path d="M91.1,142.77c.5-1.82-7.7-17.46-9-19.29s-18.07-15.59-18.07-15.59l8.46,12.73s9.86,9.88,10.21,12C83,134,91.5,147.25,96.44,155.05,93.85,150.21,90.8,143.88,91.1,142.77Z" fill="#e3b2f9"/><path d="M96.44,155.05a37.27,37.27,0,0,0,3.42,5.72C100.11,160.91,98.62,158.51,96.44,155.05Z" fill="#e3b2f9"/><path d="M579.39,67.23c-1.1,1.53,1.07,19.05,1.63,21.21s11.44,20.95,11.44,20.95L589,94.5s-5.76-12.71-5.35-14.8c.29-1.45-3.06-16.8-4.94-25.85C579.44,59.29,580.06,66.29,579.39,67.23Z" fill="#e3b2f9"/><path d="M578.71,53.85a37.27,37.27,0,0,0-1.19-6.55C577.34,47.08,577.88,49.85,578.71,53.85Z" fill="#e3b2f9"/><g opacity="0.5"><path d="M114.58,670.65c.89.71,8.78-3,9.71-3.73s8.07-11.54,8.07-11.54l-6.46,4.46s-5.08,6.06-6.12,6c-.72-.06-7.42,4.37-11.37,6.91C110.85,671.52,114,670.22,114.58,670.65Z" fill="#b3b9bc"/><path d="M108.4,672.72a12.33,12.33,0,0,0-2.89,1.7A14.81,14.81,0,0,0,108.4,672.72Z" fill="#b3b9bc"/></g><g opacity="0.5"><path d="M160,658.79c-.79-.81-9.1,1.89-10.11,2.45s-9.49,10.4-9.49,10.4l7-3.59s5.82-5.36,6.84-5.13c.71.15,7.92-3.38,12.17-5.39C163.8,658.41,160.47,659.29,160,658.79Z" fill="#b3b9bc"/><path d="M166.38,657.53a12.33,12.33,0,0,0,3.09-1.32A14.81,14.81,0,0,0,166.38,657.53Z" fill="#b3b9bc"/></g><g opacity="0.5"><path d="M210.25,682.59c.51-1.3-5.25-12.3-6.18-13.57s-13.83-10.83-13.83-10.83l6.15,8.93s7.46,6.88,7.62,8.37c.11,1,6.29,10.29,9.86,15.77C212,687.84,209.93,683.38,210.25,682.59Z" fill="#b3b9bc"/><path d="M213.87,691.24a22.75,22.75,0,0,0,2.45,4A27.85,27.85,0,0,0,213.87,691.24Z" fill="#b3b9bc"/></g><g opacity="0.5"><path d="M414.39,665.54c-.86-.56-5.77,4.19-6.27,5s-2.87,12.35-2.87,12.35l3.62-5.24s2.14-6.6,3-6.66c.56,0,4.37-5.29,6.64-8.32C417,664.17,414.92,665.88,414.39,665.54Z" fill="#b3b9bc"/><path d="M418.47,662.66a8.2,8.2,0,0,0,1.71-2.06C420.18,660.42,419.47,661.32,418.47,662.66Z" fill="#b3b9bc"/></g><g opacity="0.5"><path d="M533.11,671.46c.51-1.3-5.25-12.3-6.18-13.57S513.1,647,513.1,647l6.15,8.93s7.46,6.88,7.62,8.37c.11,1,6.29,10.29,9.86,15.77C534.9,676.7,532.79,672.25,533.11,671.46Z" fill="#b3b9bc"/><path d="M536.73,680.11a22.75,22.75,0,0,0,2.45,4A27.85,27.85,0,0,0,536.73,680.11Z" fill="#b3b9bc"/></g><g opacity="0.5"><path d="M475,643.49c-1-.61-11.63,2-12.92,2.46s-12.1,8.73-12.1,8.73l8.91-3.2s7.42-4.54,8.73-4.42c.91.09,10.11-3.09,15.55-4.89C479.87,643,475.61,643.86,475,643.49Z" fill="#b3b9bc"/><path d="M483.16,642.17a22.23,22.23,0,0,0,3.95-1.2A27.33,27.33,0,0,0,483.16,642.17Z" fill="#b3b9bc"/></g><path d="M156.39,370.94c-30.32-2-102.52,4.5-102.52,4.5l1.44,74c-.72-8.5,7.94-46.5,9.85-51.5s.26-17,12.82-20S186.71,372.94,156.39,370.94Z" fill="#edeeef"/><path d="M559.56,671.32c21,2.21,71-3.81,71-3.81l-.28-99c.42,8.5-6,71.44-7.32,76.43s-.35,17-9.07,19.91S538.58,669.11,559.56,671.32Z" fill="#edeeef"/><path d="M54.87,533.94l3.25,89.27,1.41,59.9s4.12-71.76,5.34-84,4.6-15.29-1.63-19.21-1.59-22-1.59-22Z" fill="#edeeef"/></g></g></svg>