<svg xmlns="http://www.w3.org/2000/svg" width="512" height="512" viewBox="0 0 31.499 31.499"><g fill="#696969"><path d="M9.602 11.632c-1.208 0-1.813.711-1.813 2.131 0 1.324.605 1.986 1.813 1.986 1.171 0 1.755-.673 1.755-2.015 0-.558-.134-1.037-.402-1.439-.327-.441-.777-.663-1.353-.663z"/><path d="M0 0v31.499h31.498V0H0zm18.62 22.097h-3.477v-10.12c-.254.089-.58.186-1.032.29.153.44.27.853.27 1.237 0 1.229-.371 2.299-1.108 3.21a4.384 4.384 0 0 1-2.864 1.625c-.768.114-1.152.528-1.152 1.239 0 .248.123.498.373.748.327.363.804.595 1.438.688 2.745.425 4.115 1.565 4.115 3.427 0 2.976-1.778 4.463-5.329 4.463-1.457 0-2.666-.26-3.605-.776-1.19-.653-1.801-1.681-1.801-3.081 0-1.611.83-2.717 2.646-3.311v-.056c-.656-.404-.948-1.018-.948-1.843 0-1.075.292-1.747.948-2.017v-.058c-.656-.21-1.158-.69-1.638-1.438-.54-.807-.806-1.668-.806-2.59 0-1.383.491-2.533 1.471-3.455.94-.863 2.061-1.295 3.367-1.295.939 0 1.773.229 2.579.69.902 0 1.951-.223 3.078-.662v-.603h3.477v13.688h-.002zm-.245-15.848c-.395.422-.859.633-1.396.633-.558 0-1.032-.211-1.426-.633a2.125 2.125 0 0 1-.59-1.497c0-.594.195-1.104.59-1.525.394-.423.869-.633 1.426-.633.535 0 1 .21 1.396.633.393.422.592.932.592 1.525 0 .575-.199 1.075-.592 1.497zm8.678 15.284c-.658.387-1.537.578-2.535.578-1.4 0-2.344-.5-2.881-1.5-.404-.746-.607-1.927-.607-3.539V12.14h-1.715V8.966h1.715V7.134h3.104c.016.452.039 1.414.049 1.832h2.66v3.174h-2.656v5.077c0 1.285.416 1.929 1.263 1.929.594 0 1.081-.161 1.606-.489v2.877h-.003z"/><path d="M7.473 24.876c0 .995.843 1.495 2.532 1.495 1.478 0 2.216-.519 2.216-1.555 0-.979-.805-1.469-2.418-1.469-1.554.002-2.331.51-2.33 1.529z"/></g></svg>