<svg xmlns="http://www.w3.org/2000/svg" viewBox="0 0 396.58 150.53"><defs><style>.cls-1{fill:#fff}.cls-2{fill:#000105}</style></defs><g id="Слой_2" data-name="Слой 2"><g id="Слой_1-2" data-name="Слой 1"><circle cx="75.27" cy="75.27" r="75.27" class="cls-1"/><path d="M12.9 54.65h4.43v34.78H12.9zM26.84 54.65h10.89c7.08 0 12.17 2.54 12.17 9.79 0 7-5.09 10.29-12.17 10.29h-6.47v14.7h-4.42zm10.25 16.49c5.41 0 8.39-2.19 8.39-6.7s-3-6.2-8.39-6.2h-5.83v12.9zm-.23 2.38l3.46-2.29 10.62 18.2h-5zM57 54.65h20.06v3.75H61.44v10.89h13.17V73H61.44v12.68h16.15v3.75H57zM84.94 54.65h4.57l12.59 21.87 3.75 7.2h.21c-.22-3.51-.56-7.43-.56-11.07v-18h4.2v34.78h-4.57L92.54 67.54l-3.75-7.18h-.21c.22 3.52.56 7.23.56 10.87v18.2h-4.2zM119.21 54.65h20v3.75h-15.57v10.89h13.18V73h-13.18v12.68h16.15v3.75h-20.58z" class="cls-2"/><path d="M165.7 54.65h5l11.77 34.78h-4.69L171.71 70c-1.25-3.89-2.37-7.71-3.48-11.73H168c-1.07 4-2.19 7.84-3.44 11.73l-6.13 19.42h-4.5zm-5.58 20.65h16v3.54h-16zM187.14 54.65H198c7.08 0 12.17 2.54 12.17 9.79 0 7-5.09 10.29-12.17 10.29h-6.47v14.7h-4.43zm10.26 16.49c5.41 0 8.39-2.19 8.39-6.7s-3-6.2-8.39-6.2h-5.83v12.9zm-.24 2.38l3.47-2.29 10.62 18.2h-5zM223.82 58.4H213.3v-3.75h25.47v3.75h-10.53v31h-4.42zM245 54.65h20v3.75h-15.58v10.89h13.18V73h-13.18v12.68h16.15v3.75H245zM272.92 54.65h5.33l6.67 18.58c.83 2.38 1.63 4.83 2.47 7.25h.21c.84-2.42 1.57-4.87 2.41-7.25l6.59-18.58h5.33v34.78h-4.12V70.28c0-3 .34-7.21.56-10.29h-.21l-2.76 7.94-6.55 18h-2.93l-6.59-18-2.75-7.93h-.21c.22 3.08.56 7.26.56 10.29v19.14h-4zM309.42 71.91c0-11.14 6.13-17.9 14.86-17.9s14.87 6.78 14.87 17.9-6.15 18.16-14.87 18.16-14.86-7.02-14.86-18.16zm25.16 0c0-8.66-4.09-14-10.3-14S314 63.25 314 71.91s4.08 14.27 10.29 14.27 10.29-5.6 10.29-14.27zM341.36 54.65h4.69l5.61 18.8c1.22 4.09 2.06 7.41 3.35 11.49h.21c1.29-4.08 2.15-7.4 3.35-11.49l5.57-18.8h4.51l-11 34.78h-5.13zM379.82 54.65h5l11.77 34.78h-4.69L385.83 70c-1.25-3.89-2.37-7.71-3.49-11.73h-.21c-1.07 4-2.19 7.84-3.44 11.73l-6.13 19.42h-4.51zm-5.58 20.65h16v3.54h-16z" class="cls-1"/></g></g></svg>