<svg xmlns="http://www.w3.org/2000/svg" width="512" height="512" viewBox="0 0 550.801 550.801"><path d="M475.084 131.997c-.021-2.531-.833-5.021-2.567-6.992L366.325 3.694c-.032-.034-.063-.045-.085-.076-.633-.707-1.371-1.295-2.151-1.804-.231-.155-.464-.285-.706-.422a11.325 11.325 0 0 0-2.131-.896c-.2-.053-.38-.135-.58-.188A10.828 10.828 0 0 0 358.193 0H97.2C85.282 0 75.6 9.693 75.6 21.601v507.6c0 11.907 9.682 21.601 21.6 21.601h356.4c11.907 0 21.6-9.693 21.6-21.601V133.202c0-.406-.063-.804-.116-1.205zM204.051 521.143c-6.94 0-16.055-1.182-21.998-3.164l3.375-24.374c4.158 1.393 9.503 2.384 15.448 2.384 12.68 0 20.596-5.759 20.596-26.557v-83.996h30.122v84.396h.005c0 38.043-18.225 51.311-47.548 51.311zm105.394-.201c-15.25 0-30.29-3.966-37.823-8.121l6.138-24.965c8.124 4.166 20.606 8.321 33.489 8.321 13.864 0 21.188-5.731 21.188-14.459 0-8.322-6.338-13.078-22.386-18.816-22.185-7.73-36.647-20.007-36.647-39.424 0-22.781 19.014-40.215 50.512-40.215 15.051 0 26.156 3.164 34.077 6.739l-6.719 24.363c-5.357-2.573-14.86-6.339-27.949-6.339-13.067 0-19.417 5.959-19.417 12.878 0 8.511 7.541 12.287 24.775 18.815 23.562 8.723 34.667 20.999 34.667 39.814-.01 22.393-17.254 41.409-53.905 41.409zm144.156-154.195H97.2V21.601h250.193v110.51c0 5.967 4.841 10.8 10.8 10.8H453.6v223.836zm-96.009-135.949c2.489 5.16 3.597 10.383 3.597 17.062 0 10.465-3.296 18.808-9.987 25.262-6.281 6.097-14.392 9.683-25.202 11.201-4.303.591-12.725.622-17.218 0-17.181-2.3-29.893-10.32-38.024-24.021-1.041-1.706-1.252-2.268-.988-2.511.427-.4 20.788-12.145 21.03-12.145.11 0 .886 1.013 1.74 2.247 6.26 9.255 14.049 13.537 24.474 13.537 6.187 0 11.153-1.685 14.308-4.872.943-.934 1.982-2.326 2.383-3.154 2.057-4.282 1.15-9.869-2.114-13.374-2.647-2.837-6.798-5.115-17.951-9.898-8.189-3.533-12.925-5.806-16.4-7.894-13.663-8.269-19.802-18.702-19.802-33.634 0-9.977 3.106-17.84 9.604-24.286 6.322-6.26 14.803-9.898 24.906-10.697 3.828-.298 4.366-.298 8.433.026 8.295.614 14.581 2.618 20.466 6.528 3.186 2.117 7.815 6.927 10.378 10.779 1.213 1.819 2.199 3.37 2.199 3.48 0 .185-19.454 12.762-20.14 13.06-.221.073-.833-.644-1.666-1.957-.723-1.149-2.272-3.045-3.48-4.221-3.396-3.43-6.739-4.764-11.907-4.764-4.546-.032-7.488 1.118-10.025 3.878-1.767 1.901-2.567 3.85-2.758 6.74-.211 3.639.78 6.555 3.101 9.044 2.437 2.592 6.134 4.627 17.149 9.358 14.576 6.265 21.885 10.597 27.527 16.318 2.95 2.999 4.659 5.369 6.367 8.908zm-115.731-75.84h13.112v47.429c0 31.462-.108 48.179-.271 49.673-1.846 14.792-8.822 24.743-20.73 29.563-9.924 3.986-23.461 4.313-34.003.802-9.975-3.322-18.27-10.539-23.058-20.092l-.804-1.604 10.568-6.423a3718.958 3718.958 0 0 1 10.75-6.468c.087-.032.783 1.015 1.556 2.302 4.786 8.189 8.904 11.101 15.783 11.074 4.817-.026 7.702-.968 9.954-3.214 1.603-1.604 2.516-3.341 3.288-6.257l.588-2.22.082-47.297.108-47.268h13.077z" fill="#696969"/></svg>