<svg xmlns="http://www.w3.org/2000/svg" viewBox="0 0 512 512" width="512" height="512"><path d="M437.333 213.333c5.888 0 10.667-4.779 10.667-10.667v-128c0-29.397-23.915-53.333-53.333-53.333H53.333C23.915 21.333 0 45.269 0 74.667v362.667c0 29.397 23.915 53.333 53.333 53.333h341.333c29.419 0 53.333-23.936 53.333-53.333v-64c0-5.888-4.779-10.667-10.667-10.667s-10.667 4.779-10.667 10.667v64c0 17.643-14.357 32-32 32H53.333c-17.643 0-32-14.357-32-32V128h405.333v74.667c.001 5.888 4.779 10.666 10.667 10.666zm-416-106.666v-32c0-17.643 14.357-32 32-32h341.333c17.643 0 32 14.357 32 32v32H21.333z" fill="#696969"/><circle cx="53.333" cy="74.667" r="10.667" fill="#696969"/><circle cx="96" cy="74.667" r="10.667" fill="#696969"/><circle cx="138.667" cy="74.667" r="10.667" fill="#696969"/><path d="M480 234.667h-21.333c-5.888 0-10.667 4.779-10.667 10.667v85.333c0 5.888 4.779 10.667 10.667 10.667s10.667-4.779 10.667-10.667v-32H480c17.643 0 32-14.357 32-32s-14.357-32-32-32zm0 42.666h-10.667V256H480c5.867 0 10.667 4.779 10.667 10.667s-4.8 10.666-10.667 10.666zm-192-42.666h-21.333c-5.888 0-10.667 4.779-10.667 10.667v85.333c0 5.888 4.779 10.667 10.667 10.667s10.667-4.779 10.667-10.667v-32H288c17.643 0 32-14.357 32-32s-14.357-32-32-32zm0 42.666h-10.667V256H288c5.867 0 10.667 4.779 10.667 10.667s-4.8 10.666-10.667 10.666zm128-42.666c-5.888 0-10.667 4.779-10.667 10.667v32h-42.667v-32c0-5.888-4.779-10.667-10.667-10.667s-10.667 4.779-10.667 10.667v85.333c0 5.888 4.779 10.667 10.667 10.667s10.667-4.779 10.667-10.667v-32h42.667v32c0 5.888 4.779 10.667 10.667 10.667s10.667-4.779 10.667-10.667v-85.333c0-5.889-4.779-10.667-10.667-10.667z" fill="#696969"/></svg>