<svg xmlns="http://www.w3.org/2000/svg" width="512" height="512" viewBox="0 0 334.333 334.333"><path fill="#696969" d="M317.514 16.789C306.688 5.963 292.291 0 276.981 0c-15.312 0-29.706 5.963-40.532 16.789l-77.675 77.676a33.884 33.884 0 0 0-10.289-1.591c-9.057 0-17.572 3.526-23.979 9.931a33.883 33.883 0 0 0-7.005 37.764l-95.052 95.053a12.003 12.003 0 0 0-3.506 8.938l1.394 36.92-18.501 30.091a12.002 12.002 0 0 0 1.736 14.771l4.477 4.477a11.994 11.994 0 0 0 14.793 1.724L52.98 313.92l36.743 1.441a12.003 12.003 0 0 0 8.955-3.505l95.057-95.058a34.143 34.143 0 0 0 13.795 2.924c9.056 0 17.567-3.526 23.97-9.931 8.938-8.938 12.143-22.261 8.339-34.263l77.675-77.677c22.348-22.348 22.348-58.713 0-81.062zm-202.89 231.975l-44.301-13.871 69.154-69.152 29.085 29.085-53.938 53.938z"/></svg>