<svg xmlns="http://www.w3.org/2000/svg" width="512" height="512" viewBox="0 0 60 60"><g fill="#696969"><path d="M17 49c-2.206 0-4 1.794-4 4s1.794 4 4 4 4-1.794 4-4-1.794-4-4-4zm0 6c-1.103 0-2-.897-2-2s.897-2 2-2 2 .897 2 2-.897 2-2 2zM13 5h4a1 1 0 1 0 0-2h-4a1 1 0 1 0 0 2zm7 0h1a1 1 0 1 0 0-2h-1a1 1 0 1 0 0 2zm34 42a1 1 0 1 0-2 0v1a1 1 0 1 0 2 0v-1zm0-12a1 1 0 1 0-2 0v1a1 1 0 1 0 2 0v-1zm0 8a1 1 0 1 0-2 0v1a1 1 0 1 0 2 0v-1zm0-4a1 1 0 1 0-2 0v1a1 1 0 1 0 2 0v-1zm0-8a1 1 0 1 0-2 0v1a1 1 0 1 0 2 0v-1zm0 20a1 1 0 1 0-2 0v1a1 1 0 1 0 2 0v-1zm-1 3a1 1 0 0 0-1 1v1a1 1 0 1 0 2 0v-1a1 1 0 0 0-1-1zm-14.957 4h-.994a1 1 0 1 0 0 2h.994a1 1 0 1 0 0-2z"/><path d="M34.069 58h-.792l.005-.009c.124-.19.231-.39.324-.597.023-.051.046-.101.067-.152.019-.046.043-.089.06-.136.014-.038.008-.076.017-.114.151-.441.25-.906.25-1.397V28.857a.993.993 0 0 0 .5-.856.987.987 0 0 0-.5-.847V4.405A4.41 4.41 0 0 0 29.595 0H4.405A4.41 4.41 0 0 0 0 4.405v51.189A4.41 4.41 0 0 0 4.405 60h25.689c.152 0 .293-.04.422-.101a4.364 4.364 0 0 0 1.598-.702c.096.455.479.803.961.803h.994a1 1 0 1 0 0-2zM2 8h30v38H2V8zm2.405-6h25.189A2.408 2.408 0 0 1 32 4.405V6H2V4.405A2.408 2.408 0 0 1 4.405 2zm25.19 56H4.405A2.408 2.408 0 0 1 2 55.595V48h30v7.594c0 .309-.064.603-.17.874A2.4 2.4 0 0 1 29.595 58zm12.423 0h-.994a1 1 0 1 0 0 2h.994a1 1 0 1 0 0-2zm3.425-29a1 1 0 1 0 0-2h-.994a1 1 0 1 0 0 2h.994zm-7.949 0a1 1 0 1 0 0-2H36.5a1 1 0 1 0 0 2h.994zm8.498 29h-.994a1 1 0 1 0 0 2h.994a1 1 0 1 0 0-2zm-4.524-29a1 1 0 1 0 0-2h-.994a1 1 0 1 0 0 2h.994zM53.94 58h-.994a1 1 0 1 0 0 2h.994a1 1 0 1 0 0-2zM59 41.729a1 1 0 0 0-1 1v.994a1 1 0 1 0 2 0v-.994a1 1 0 0 0-1-1zm0 7.949a1 1 0 0 0-1 1v.993a1 1 0 1 0 2 0v-.993a1 1 0 0 0-1-1zm0-3.975a1 1 0 0 0-1 1v.993a1 1 0 1 0 2 0v-.993a1 1 0 0 0-1-1zm0-7.949a1 1 0 0 0-1 1v.994a1 1 0 1 0 2 0v-.994a1 1 0 0 0-1-1zm.933-7.118a.994.994 0 0 0-1.159-.811 1 1 0 0 0-.811 1.158c.024.137.037.279.037.422v.395a1 1 0 1 0 2 0v-.395c0-.258-.023-.516-.067-.769zM49.417 29a1 1 0 1 0 0-2h-.994a1 1 0 1 0 0 2h.994zM59 33.78a1 1 0 0 0-1 1v.993a1 1 0 1 0 2 0v-.993a1 1 0 0 0-1-1zM53.391 29a1 1 0 1 0 0-2h-.994a1 1 0 1 0 0 2h.994zm-3.425 29h-.994a1 1 0 1 0 0 2h.994a1 1 0 1 0 0-2zm6.822-28.683a1 1 0 0 0 .997-1.734 4.367 4.367 0 0 0-1.196-.469.999.999 0 1 0-.447 1.949c.226.052.443.138.646.254zM59 53.651a1 1 0 0 0-1 1v.993c0 .553.448.976 1 .976s1-.473 1-1.025v-.943a1 1 0 0 0-1-1.001zm-1.892 3.813a2.37 2.37 0 0 1-.6.357 1 1 0 0 0 .759 1.85 4.432 4.432 0 0 0 1.102-.654 1 1 0 1 0-1.261-1.553zm-5.49-36.541a.991.991 0 0 0 1.09-.216l5.999-6a.999.999 0 1 0-1.414-1.414L53 17.586V15c0-7.168-5.832-13-13-13a1 1 0 1 0 0 2c6.065 0 11 4.935 11 11v2.586l-4.293-4.293a.999.999 0 1 0-1.414 1.414l5.999 6c.093.092.203.165.326.216z"/></g></svg>